<?xml version="1.0" encoding="UTF-8"?>
<svg width="1280px" height="30px" viewBox="0 0 1280 30" version="1.1" xmlns="http://www.w3.org/2000/svg" xmlns:xlink="http://www.w3.org/1999/xlink">
    <!-- Generator: Sketch 45.2 (43514) - http://www.bohemiancoding.com/sketch -->
    <title>footer</title>
    <desc>Created with Sketch.</desc>
    <defs>
        <polygon id="path-1" points="7.30702627 0.0222275041 0.0376039086 0.0222275041 0.0376039086 10.7142055 7.30702627 10.7142055 7.30702627 0.0222275041"></polygon>
        <polygon id="path-3" points="17.808162 0.0222275041 0 0.0222275041 0 10.4864907 17.808162 10.4864907 17.808162 0.0222275041"></polygon>
        <rect id="path-5" x="0" y="1" width="23.8982864" height="12" rx="2"></rect>
        <filter x="-8.4%" y="-8.3%" width="116.7%" height="133.3%" filterUnits="objectBoundingBox" id="filter-6">
            <feOffset dx="0" dy="1" in="SourceAlpha" result="shadowOffsetOuter1"></feOffset>
            <feGaussianBlur stdDeviation="0.5" in="shadowOffsetOuter1" result="shadowBlurOuter1"></feGaussianBlur>
            <feColorMatrix values="0 0 0 0 0   0 0 0 0 0   0 0 0 0 0  0 0 0 0.3 0" type="matrix" in="shadowBlurOuter1"></feColorMatrix>
        </filter>
    </defs>
    <g id="loading-pattern" stroke="none" stroke-width="1" fill="none" fill-rule="evenodd">
        <g id="01" transform="translate(0.000000, -3706.000000)">
            <g id="footer" transform="translate(0.000000, 3706.000000)">
                <rect id="Rectangle-3" fill="#848484" x="0" y="0" width="1280" height="30"></rect>
                <g id="bc-full-logo-–-header" transform="translate(153.000000, 9.000000)">
                    <g id="Group-3" transform="translate(17.770575, 0.034913)">
                        <mask id="mask-2" fill="white">
                            <use xlink:href="#path-1"></use>
                        </mask>
                        <g id="Clip-2"></g>
                        <path d="M3.65800149,4.03149784 C2.29549549,4.03149784 1.59935749,5.10390349 1.59935749,6.71942591 C1.59935749,8.24655258 2.35212134,9.39266897 3.65800149,9.39266897 C5.13478772,9.39266897 5.68841828,8.04124815 5.68841828,6.71942591 C5.68738975,5.33909219 4.99159459,4.03149784 3.65754437,4.03149784 L3.65800149,4.03149784 Z M0.0377181888,0.022204648 L1.65615476,0.022204648 L1.65615476,3.89933276 L1.68478196,3.89933276 C2.12487511,3.16513944 3.04768794,2.7096756 3.87113411,2.7096756 C6.185023,2.7096756 7.30702627,4.53147383 7.30702627,6.74931019 C7.30702627,8.79018362 6.31335969,10.7142055 4.14077831,10.7142055 C3.14688317,10.7142055 2.08207716,10.4650746 1.59924321,9.46609402 L1.57113027,9.46609402 L1.57113027,10.5093011 L0.0376039086,10.5093011 L0.0376039086,0.0224332085 L0.0377181888,0.022204648 Z" id="Fill-1" fill="#FFFFFF" mask="url(#mask-2)"></path>
                    </g>
                    <path d="M30.6887892,7.98843354 C30.6887892,9.0457542 29.5812995,9.42802156 28.8714479,9.42802156 C28.3033038,9.42802156 27.3802052,9.20694646 27.3802052,8.45841098 C27.3802052,7.57685331 28.0052609,7.31229458 28.7012275,7.19470023 C29.4107934,7.06264943 30.1917845,7.07773442 30.6887892,6.73992207 L30.6887892,7.98843354 Z M37.6149709,2.74462821 C36.6495315,2.74462821 35.8116861,3.25860352 35.3289092,4.09627759 L35.3006249,4.06639331 L35.3006249,2.95044689 L33.7672128,2.95044689 L33.7672128,9.4173935 C32.8441714,9.42785014 32.7581755,9.42785014 32.6877218,9.42785014 C32.3897361,9.42785014 32.3042545,9.2662579 32.3042545,8.85496336 L32.3042545,4.94772241 C32.3042545,3.34728498 30.7994696,2.74462821 29.3650242,2.74462821 C27.7464734,2.74462821 26.1424361,3.31717214 26.0292415,5.27113546 L27.6473924,5.27113546 C27.7186461,4.44854638 28.3571869,4.06639331 29.2659432,4.06639331 C29.9188833,4.06639331 30.7850703,4.22844267 30.7850703,5.09480107 C30.7850703,6.07881096 29.7486629,5.9465316 28.584376,6.16720671 C27.2214128,6.32822755 25.7591973,6.63752699 25.7591973,8.53126462 C25.7591973,10.0152505 26.9516544,10.749101 28.2718196,10.749101 C29.1381208,10.749101 30.1742996,10.4700858 30.8135832,9.82497393 C30.9408342,10.5147122 31.4099546,10.749101 32.0628375,10.749101 C32.3325388,10.749101 32.8436,10.6466488 35.3755356,10.5585387 L35.3755356,10.5436251 L35.3856494,10.5436251 L35.3856494,6.06458307 C35.3856494,4.94795097 36.0814445,4.06662187 37.1602499,4.06662187 C38.1115185,4.06662187 38.5661824,4.58094003 38.5942382,5.77042577 L38.5942382,10.5438537 L40.2134176,10.5438537 L40.2134176,5.33004691 C40.2165603,3.62647157 39.2080944,2.74479963 37.6175422,2.74479963 L37.6149709,2.74462821 Z" id="Fill-4" fill="#FFFFFF"></path>
                    <path d="M44.9278083,9.427873 C46.3757959,9.427873 46.9865666,8.06171003 46.9865666,6.73954494 C46.9865666,5.06585388 46.2058041,4.06641616 44.9561498,4.06641616 C43.4368513,4.06641616 42.8972772,5.46189201 42.8972772,6.82754072 C42.8972772,8.13484937 43.5217615,9.42758729 44.928094,9.42758729 L44.9278083,9.427873 Z M48.5480916,10.5438194 L47.0145653,10.5438194 L47.0145653,9.51575449 L46.9864523,9.51575449 C46.5606442,10.3823414 45.63726,10.7491238 44.7146186,10.7491238 C42.4007297,10.7491238 41.2788407,8.97183775 41.2788407,6.69571848 C41.2788407,3.94922179 42.8549936,2.74482248 44.4595451,2.74482248 C45.3819008,2.74482248 46.403966,3.0975484 46.9009707,3.93419394 L46.9298836,3.93419394 L46.9298836,0.0574086719 L48.5481488,0.0574086719 L48.5481488,10.544048 L48.5480916,10.5438194 Z" id="Fill-6" fill="#FFFFFF"></path>
                    <path d="M54.9801142,5.49156487 C54.8521775,4.56623788 54.1992374,4.06654758 53.3048803,4.06654758 C52.4667492,4.06654758 51.2886343,4.52206857 51.2886343,6.82807212 C51.2886343,8.09132575 51.8279227,9.42806156 53.233798,9.42806156 C54.1706673,9.42806156 54.8235503,8.78100691 54.9801142,7.69408768 L56.5984936,7.69408768 C56.3002794,9.6621646 55.1221074,10.749141 53.233798,10.749141 C50.9336228,10.749141 49.6700835,9.06053635 49.6700835,6.82807212 C49.6700835,4.53698214 50.8768826,2.74506818 53.2905382,2.74506818 C54.9941707,2.74506818 56.4427868,3.62616873 56.5984936,5.49162201 L54.9827426,5.49162201 L54.9801142,5.49156487 Z" id="Fill-8" fill="#FFFFFF"></path>
                    <path d="M62.1653749,7.98843354 C62.1653749,9.0457542 61.058228,9.42802156 60.3479193,9.42802156 C59.7803465,9.42802156 58.8574194,9.20694646 58.8574194,8.45841098 C58.8574194,7.57685331 59.4824751,7.31229458 60.1776989,7.19470023 C60.8880076,7.06264943 61.6688273,7.07773442 62.1653749,6.73992207 L62.1653749,7.98843354 Z M73.4388907,2.74462821 C72.3741418,2.74462821 71.6783466,3.22957635 71.1391154,4.00776755 C70.8122739,3.14169485 69.9745999,2.74462821 69.0801857,2.74462821 C67.9157273,2.74462821 67.3051852,3.25860352 66.8225798,4.00776755 L66.7800676,4.00776755 L66.7800676,2.95044689 L65.2459698,2.95044689 L65.2459698,9.4173935 C64.3230427,9.42785014 64.237104,9.42785014 64.1661359,9.42785014 C63.8679788,9.42785014 63.7831829,9.2662579 63.7831829,8.85496336 L63.7831829,4.94772241 C63.7831829,3.34728498 62.2782837,2.74462821 60.843724,2.74462821 C59.2256303,2.74462821 57.6210217,3.31717214 57.5072557,5.27113546 L59.1262637,5.27113546 C59.1968317,4.44854638 59.8361724,4.06639331 60.7449288,4.06639331 C61.3978689,4.06639331 62.2639416,4.22844267 62.2639416,5.09480107 C62.2639416,6.07881096 61.2273056,5.9465316 60.0630758,6.16720671 C58.7000556,6.32822755 57.2376686,6.63752699 57.2376686,8.53126462 C57.2376686,10.0152505 58.4300114,10.749101 59.7505765,10.749101 C60.6168778,10.749101 61.6530566,10.4700858 62.2920545,9.82497393 C62.4198198,10.5147122 62.8881402,10.749101 63.5418231,10.749101 C63.8112387,10.749101 64.3225856,10.6466488 66.8311508,10.5585387 L66.8311508,10.5436251 L66.8642921,10.5436251 L66.8642921,6.03498449 C66.8642921,4.77195943 67.6312838,4.06662187 68.469015,4.06662187 C69.4486251,4.06662187 69.7612387,4.62442365 69.7612387,5.66808782 L69.7612387,10.5438537 L71.3793896,10.5438537 L71.3793896,6.09372453 C71.3793896,4.81572875 71.8476528,4.06673615 72.9412574,4.06673615 C74.2048539,4.06673615 74.2757076,4.90389595 74.2757076,6.10875238 L74.2757076,10.5437966 L75.8942585,10.5437966 L75.8942585,5.30073403 C75.8951727,3.4497372 74.9867592,2.74479963 73.4400906,2.74479963 L73.4388907,2.74462821 Z" id="Fill-10" fill="#FFFFFF"></path>
                    <path d="M80.9783115,4.06641045 C79.6153484,4.06641045 78.9194389,5.1388161 78.9194389,6.75433852 C78.9194389,8.28146519 79.6718028,9.42758158 80.9783115,9.42758158 C82.4546406,9.42758158 83.0087283,8.07616076 83.0087283,6.75433852 C83.0087283,5.3740048 82.3119617,4.06641045 80.9779115,4.06641045 L80.9783115,4.06641045 Z M77.3580282,2.95046404 L78.8914974,2.95046404 L78.8914974,3.97852895 L78.9197246,3.97852895 C79.3740457,3.11228484 80.2542891,2.74458821 81.191387,2.74458821 C83.5056758,2.74458821 84.6273934,4.56638644 84.6273934,6.7842228 C84.6273934,8.82509623 83.6333269,10.7491181 81.4614311,10.7491181 C80.5244476,10.7491181 79.5159246,10.3967922 79.0052634,9.56020378 L78.976579,9.56020378 L78.976579,13.3485362 L77.3579139,13.3485362 L77.3579139,2.95109258 L77.3580282,2.95046404 Z" id="Fill-12" fill="#FFFFFF"></path>
                    <g id="Group-16" transform="translate(0.000000, 0.034913)">
                        <mask id="mask-4" fill="white">
                            <use xlink:href="#path-3"></use>
                        </mask>
                        <g id="Clip-15"></g>
                        <polygon id="Fill-14" fill="#FFFFFF" mask="url(#mask-4)" points="12.1392342 10.4864907 -1.14280227e-05 10.4864907 5.66885921 0.02219322 17.808162 0.02219322"></polygon>
                    </g>
                </g>
                <g id="links" transform="translate(573.000000, 7.000000)" font-size="13" letter-spacing="0.200000003" fill="#FFFFFF" font-weight="300">
                    <text id="terms-of-use" font-family="HelveticaNeue-Light, Helvetica Neue">
                        <tspan x="0" y="13">terms of us</tspan>
                        <tspan x="65.029" y="13">e</tspan>
                    </text>
                    <text id="privacy" font-family="HelveticaNeue-Light, Helvetica Neue">
                        <tspan x="87" y="13">privac</tspan>
                        <tspan x="121.675" y="13">y</tspan>
                    </text>
                    <text id="copyright-policy" font-family="HelveticaNeue-Light, Helvetica Neue">
                        <tspan x="143" y="13">copyright polic</tspan>
                        <tspan x="227.874" y="13">y</tspan>
                    </text>
                    <text id="help" font-family="HelveticaNeue-Light, Helvetica Neue">
                        <tspan x="250" y="13">hel</tspan>
                        <tspan x="266.733" y="13">p</tspan>
                    </text>
                    <text id="switch-to-mobile-vie" font-family="HelveticaNeue-Light, Helvetica Neue">
                        <tspan x="289" y="13">switch to mobile vie</tspan>
                        <tspan x="403.032" y="13">w</tspan>
                    </text>
                    <text id="language:-English" font-family="HelveticaNeue-Thin, Helvetica Neue">
                        <tspan x="429" y="13">language: Englis</tspan>
                        <tspan x="520.444" y="13">h</tspan>
                    </text>
                </g>
                <g id="new" transform="translate(1104.000000, 3.000000)">
                    <g id="Rectangle-4">
                        <use fill="black" fill-opacity="1" filter="url(#filter-6)" xlink:href="#path-5"></use>
                        <use fill="#FAFF00" fill-rule="evenodd" xlink:href="#path-5"></use>
                    </g>
                    <text font-family="HelveticaNeue, Helvetica Neue" font-size="11" font-weight="normal" fill="#000000">
                        <tspan x="2" y="10">new</tspan>
                    </text>
                </g>
            </g>
        </g>
    </g>
</svg>